<svg xmlns="http://www.w3.org/2000/svg" viewBox="0 0 64 64" role="img" aria-label="Attendance favicon">
  <rect width="64" height="64" fill="#ffffff" />
  <path
    d="M32 4C25 8 17 9 9 10c0 20 7 35 23 46 16-11 23-26 23-46-8-1-16-2-23-6Z"
    fill="#f6f6f6"
    stroke="#111111"
    stroke-width="2.4"
    stroke-linejoin="round"
  />
  <path
    d="M16 17c5-1 10-2 16-2s11 1 16 2"
    fill="none"
    stroke="#111111"
    stroke-width="1.5"
    stroke-linecap="round"
  />
  <path
    d="M15 28h34"
    fill="none"
    stroke="#111111"
    stroke-width="1.5"
    stroke-linecap="round"
  />
  <path
    d="M20 14c2 1 3 3 3 5-2 0-4-1-5-3 0-1 1-2 2-2Zm24 0c-2 1-3 3-3 5 2 0 4-1 5-3 0-1-1-2-2-2Z"
    fill="#111111"
  />
  <path
    d="M24 16c2 1 4 3 4 6 0 1-1 2-2 2-3 0-5-3-5-5 0-2 1-3 3-3Zm16 0c-2 1-4 3-4 6 0 1 1 2 2 2 3 0 5-3 5-5 0-2-1-3-3-3Z"
    fill="#111111"
  />
  <path
    d="M28 16c1 1 2 3 2 5 0 2-1 3-2 4-1-1-2-2-2-4 0-2 1-4 2-5Zm8 0c1 1 2 3 2 5 0 2-1 3-2 4-1-1-2-2-2-4 0-2 1-4 2-5Z"
    fill="#111111"
  />
  <path
    d="M32 15c2 2 3 4 3 6s-1 4-3 5c-2-1-3-3-3-5s1-4 3-6Z"
    fill="#111111"
  />
  <path
    d="M21 39c3-3 7-5 11-5s8 2 11 5"
    fill="none"
    stroke="#111111"
    stroke-width="1.4"
    stroke-linecap="round"
  />
  <rect x="18" y="35" width="28" height="11" rx="5.5" fill="#ffffff" stroke="#111111" stroke-width="1.8" />
  <text
    x="32"
    y="42.2"
    text-anchor="middle"
    font-size="10"
    font-family="Georgia, 'Times New Roman', serif"
    font-weight="700"
    fill="#111111"
  >
    ZTMT
  </text>
  <text
    x="32"
    y="49.8"
    text-anchor="middle"
    font-size="2.8"
    font-family="Georgia, 'Times New Roman', serif"
    fill="#111111"
  >
    HYU TECH
  </text>
</svg>
